<?xml version="1.0" encoding="utf-8"?>
<svg version="1.1" id="Layer_1" xmlns="http://www.w3.org/2000/svg" xmlns:xlink="http://www.w3.org/1999/xlink" x="0px" y="0px"
	 viewBox="0 0 247.3 256.7" style="enable-background:new 0 0 247.3 256.7;" xml:space="preserve">
<style type="text/css">
	.st0{fill:#27AAE1;}
</style>
<g>
	<path class="st0" d="M128.5,0h-3.7H43.3L0,66.1v63h5.9L0,140.8v53.9h94.8l27.5-30.8l0.9-3l34.3,33.8h83.8l5.9-21.3V0H128.5z
		 M15.6,163.9v-34.8H81V98.3H15.6V59.6L48.5,9.5H119v11.1l-0.2,0.8v25.7H58.1v24.6h60.7v67.4l-22.1,24.8H15.6z M237.8,163.9h-70.5
		l-32.9-32.6V9.5h43.3v116.8H194V9.5h43.8V163.9z"/>
	<path class="st0" d="M34.4,239.5c-2.1-1.8-5.2-3.2-9.4-4.5c-2.4-0.9-4.1-1.7-5-2.4c-0.9-0.6-1.3-1.5-1.3-2.5c0-1.1,0.4-2,1.3-2.7
		c0.9-0.7,2-1.1,3.5-1.1c1.8,0,3.2,0.4,4.1,1.1c0.9,0.8,1.4,2,1.4,3.6h8l0-0.1c0.1-3.5-1.1-6.1-3.6-8c-2.5-1.9-5.7-2.8-9.8-2.8
		c-3.8,0-7,0.9-9.5,2.8c-2.5,1.8-3.7,4.2-3.7,7.2c0,3,1.1,5.4,3.2,7c2.1,1.6,5.4,3.1,9.8,4.6c2.2,0.8,3.7,1.5,4.5,2.2
		c0.8,0.7,1.2,1.6,1.2,2.9c0,1.1-0.4,2-1.3,2.7c-0.8,0.7-2.1,1-3.9,1c-2.1,0-3.7-0.4-4.7-1.3c-1-0.9-1.5-2.3-1.5-4.4h-8l0,0.1
		c-0.1,4.1,1.3,7.1,4.1,8.9c2.8,1.9,6.2,2.8,10.2,2.8c4,0,7.3-0.9,9.7-2.6c2.4-1.8,3.7-4.2,3.7-7.3
		C37.5,243.7,36.5,241.3,34.4,239.5z"/>
	<path class="st0" d="M62.9,243.7c0,2.2-0.6,3.9-1.7,5c-1.1,1.1-2.7,1.7-4.7,1.7c-2,0-3.6-0.6-4.7-1.7c-1.1-1.1-1.7-2.8-1.7-5v-23
		h-8.3v23c0,4.1,1.4,7.3,4.1,9.6c2.7,2.3,6.3,3.5,10.6,3.5c4.3,0,7.9-1.2,10.6-3.5c2.7-2.3,4.1-5.5,4.1-9.6v-23h-8.3V243.7z"/>
	<rect x="77.1" y="220.7" class="st0" width="8.2" height="35.5"/>
	<path class="st0" d="M115.2,223.9c-2.5-2.1-5.8-3.2-10-3.2H91.5v35.5h8.3v-12.2h5.3c4.2,0,7.6-1.1,10-3.2c2.5-2.1,3.7-5,3.7-8.5
		C118.9,228.9,117.6,226.1,115.2,223.9z M109.2,236.2c-0.9,1-2.3,1.5-4.1,1.5h-5.3V227h5.3c1.8,0,3.2,0.5,4.1,1.5
		c0.9,1,1.4,2.3,1.4,3.9C110.6,234,110.2,235.2,109.2,236.2z"/>
	<path class="st0" d="M147,223.9c-2.5-2.1-5.8-3.2-10-3.2h-13.6v35.5h8.3v-12.2h5.3c4.2,0,7.6-1.1,10-3.2c2.5-2.1,3.7-5,3.7-8.5
		C150.8,228.9,149.5,226.1,147,223.9z M141.1,236.2c-0.9,1-2.3,1.5-4.1,1.5h-5.3V227h5.3c1.8,0,3.2,0.5,4.1,1.5
		c0.9,1,1.4,2.3,1.4,3.9C142.5,234,142.1,235.2,141.1,236.2z"/>
	<polygon class="st0" points="155.3,256.2 178.6,256.2 178.6,249.9 163.6,249.9 163.6,241 176.1,241 176.1,234.7 163.6,234.7
		163.6,227 178.6,227 178.6,220.7 155.3,220.7 	"/>
	<polygon class="st0" points="181.1,227 190.3,227 190.3,256.2 198.6,256.2 198.6,227 208,227 208,220.7 181.1,220.7 	"/>
	<path class="st0" d="M234.3,239.5c-2.1-1.8-5.2-3.2-9.4-4.5c-2.4-0.9-4.1-1.7-5-2.4c-0.9-0.6-1.3-1.5-1.3-2.5c0-1.1,0.4-2,1.3-2.7
		c0.9-0.7,2-1.1,3.5-1.1c1.8,0,3.2,0.4,4.1,1.1c0.9,0.8,1.4,2,1.4,3.6h8l0-0.1c0.1-3.5-1.1-6.1-3.6-8c-2.5-1.9-5.7-2.8-9.8-2.8
		c-3.8,0-7,0.9-9.5,2.8c-2.5,1.8-3.7,4.2-3.7,7.2c0,3,1.1,5.4,3.2,7c2.1,1.6,5.4,3.1,9.8,4.6c2.2,0.8,3.7,1.5,4.5,2.2
		c0.8,0.7,1.2,1.6,1.2,2.9c0,1.1-0.4,2-1.3,2.7c-0.8,0.7-2.1,1-3.9,1c-2.1,0-3.7-0.4-4.7-1.3c-1-0.9-1.5-2.3-1.5-4.4h-8l0,0.1
		c-0.1,4.1,1.3,7.1,4.1,8.9c2.8,1.9,6.2,2.8,10.2,2.8c4,0,7.3-0.9,9.7-2.6c2.4-1.8,3.7-4.2,3.7-7.3
		C237.5,243.7,236.4,241.3,234.3,239.5z"/>
</g>
</svg>
