<?xml version="1.0" encoding="utf-8"?>
<svg version="1.1" id="Layer_1" xmlns="http://www.w3.org/2000/svg" xmlns:xlink="http://www.w3.org/1999/xlink" x="0px" y="0px"
	 viewBox="0 0 455.7 420.5" style="enable-background:new 0 0 455.7 420.5;" xml:space="preserve">
<style type="text/css">
	.st0{fill:#27AAE1;}
	.st1{fill:#D1D3D4;}
</style>
<path class="st0" d="M422.1,32.6V0h-31.8h-32.6h-32.5h-32.6H260h-32.6h-32.5h-32.6v32.6h-32.6V0H97.8H65.1H32.6H0v32.6v31.8v32.6
	v32.6v32.5v32.6v32.5V260h32.6v31.8h32.5V324h32.6h31.8h32.6h32.6h32.5H260h32.5v-32.2h32h0.6V324h32.5h32.6h31.8h32.6v-32.2V260
	v-32.6v-32.5v-32.6v-32.5V97.1V64.5V32.6H422.1z M32.6,227.4v-32.5v-32.6v-32.5V97.1V64.5V32.6h32.5h32.6v31.8v32.6v32.6v32.5v32.6
	v32.5h31.8h32.6h32.6v-32.5v-32.6v-32.5V97.1V64.5V32.6h32.5H260v31.8v32.6v32.6v32.5v32.6v32.5h-32.6V260h-32.5h-32.6h-32.6H97.8
	H65.1v-32.6H32.6z M325.1,227.4v-32.5v-32.6v-32.5V97.1V64.5V32.6h32.5h32.6v31.8v32.6v32.6v32.5v32.6v32.5V260h-32.6h-32.5V227.4z"
	/>
<path class="st1" d="M39.3,400.7c0-2.5-0.8-4.5-2.5-5.8s-4.7-2.8-9-4.3c-8.8-2.9-15.4-5.9-19.7-9.2c-4.3-3.2-6.4-7.9-6.4-14
	c0-6,2.5-10.8,7.5-14.5c5-3.7,11.3-5.5,19-5.5c8.1,0,14.6,1.9,19.6,5.7c4.9,3.8,7.3,9.1,7.2,16l-0.1,0.3h-16c0-3.4-0.9-5.8-2.7-7.3
	c-1.8-1.5-4.6-2.3-8.3-2.3c-3,0-5.4,0.7-7.1,2.2c-1.7,1.5-2.6,3.3-2.6,5.4c0,2.1,0.9,3.8,2.7,5c1.8,1.3,5.1,2.8,9.9,4.7
	c8.2,2.4,14.5,5.4,18.7,8.9c4.2,3.5,6.3,8.3,6.3,14.5c0,6.3-2.4,11.1-7.3,14.7s-11.4,5.3-19.4,5.3c-8,0-14.9-1.9-20.4-5.7
	c-5.6-3.8-8.3-9.8-8.1-17.9l0.1-0.3h16.1c0,4.1,1,7.1,3.1,8.8c2,1.7,5.2,2.6,9.4,2.6c3.5,0,6-0.7,7.7-2.1
	C38.5,404.7,39.3,402.9,39.3,400.7z"/>
<path class="st1" d="M123.1,348.4v46.1c0,8.1-2.7,14.5-8.1,19.1c-5.4,4.6-12.5,6.9-21.1,6.9c-8.8,0-15.9-2.3-21.3-6.9
	c-5.4-4.6-8.2-11-8.2-19.1v-46.1h16.6v46.1c0,4.4,1.1,7.7,3.4,10c2.3,2.2,5.4,3.4,9.5,3.4c4,0,7.1-1.1,9.4-3.3
	c2.2-2.2,3.3-5.6,3.3-10v-46.1H123.1z"/>
<path class="st1" d="M151.5,419.5H135v-71.1h16.5V419.5z"/>
<path class="st1" d="M180.3,395.2v24.4h-16.5v-71.1H191c8.4,0,15.1,2.1,20.1,6.4c4.9,4.3,7.4,9.9,7.4,16.9c0,7-2.5,12.6-7.4,16.9
	c-4.9,4.3-11.6,6.4-20.1,6.4H180.3z M180.3,382.5H191c3.6,0,6.3-1,8.2-3c1.9-2,2.8-4.5,2.8-7.6c0-3.2-0.9-5.7-2.8-7.8
	c-1.9-2-4.6-3-8.2-3h-10.6V382.5z"/>
<path class="st1" d="M244.1,395.2v24.4h-16.5v-71.1h27.1c8.4,0,15.1,2.1,20.1,6.4c4.9,4.3,7.4,9.9,7.4,16.9c0,7-2.5,12.6-7.4,16.9
	c-4.9,4.3-11.6,6.4-20.1,6.4H244.1z M244.1,382.5h10.6c3.6,0,6.3-1,8.2-3c1.9-2,2.8-4.5,2.8-7.6c0-3.2-0.9-5.7-2.8-7.8
	c-1.9-2-4.6-3-8.2-3h-10.6V382.5z"/>
<path class="st1" d="M332.9,389.1h-25v17.7h30v12.7h-46.5v-71.1H338v12.7h-30.1v15.3h25V389.1z"/>
<path class="st1" d="M396.7,361.1h-18.8v58.4h-16.5v-58.4h-18.5v-12.7h53.8V361.1z"/>
<path class="st1" d="M439.2,400.7c0-2.5-0.8-4.5-2.5-5.8s-4.7-2.8-9-4.3c-8.8-2.9-15.4-5.9-19.7-9.2c-4.3-3.2-6.4-7.9-6.4-14
	c0-6,2.5-10.8,7.5-14.5c5-3.7,11.3-5.5,19-5.5c8.1,0,14.6,1.9,19.6,5.7c4.9,3.8,7.3,9.1,7.2,16l-0.1,0.3h-16c0-3.4-0.9-5.8-2.7-7.3
	c-1.8-1.5-4.6-2.3-8.3-2.3c-3,0-5.4,0.7-7.1,2.2c-1.7,1.5-2.6,3.3-2.6,5.4c0,2.1,0.9,3.8,2.7,5c1.8,1.3,5.1,2.8,9.9,4.7
	c8.2,2.4,14.5,5.4,18.7,8.9c4.2,3.5,6.3,8.3,6.3,14.5c0,6.3-2.4,11.1-7.3,14.7s-11.4,5.3-19.4,5.3c-8,0-14.9-1.9-20.4-5.7
	c-5.6-3.8-8.3-9.8-8.1-17.9l0.1-0.3h16.1c0,4.1,1,7.1,3.1,8.8c2,1.7,5.2,2.6,9.4,2.6c3.5,0,6-0.7,7.7-2.1
	C438.4,404.7,439.2,402.9,439.2,400.7z"/>
</svg>
