<?xml version="1.0" encoding="utf-8"?>
<svg version="1.1" id="Layer_1" xmlns="http://www.w3.org/2000/svg" xmlns:xlink="http://www.w3.org/1999/xlink" x="0px" y="0px"
	 viewBox="0 0 293.5 143.1" style="enable-background:new 0 0 293.5 143.1;" xml:space="preserve">
<style type="text/css">
	.st0{fill:#27AAE1;}
</style>
<g>
	<path class="st0" d="M0.9,0h141.4l0.9,0.9v141.4l-0.9,0.9H0.9L0,142.2V0.9L0.9,0z M28.4,28.4l0.4,25.4l-0.4,24.9h70.9l0.9,0.9v19.8
		l-0.9,0.9H28.8v14.2h85.5V64.5H43.4l-0.9-0.9V43.4l0.9-0.9h70.9V28.4H28.4z"/>
	<path class="st0" d="M151.3,0h141.4l0.9,0.9v141.4l-0.9,0.9H151.3l-0.9-0.9V0.9L151.3,0z M179.2,28.4v85.9h85.5V28.4h-13.8v70.9
		l-0.9,0.9h-56.3l-0.9-0.9V28.4H179.2z"/>
</g>
</svg>
