<?xml version="1.0" encoding="utf-8"?>
<svg version="1.1" id="Layer_1" xmlns="http://www.w3.org/2000/svg" xmlns:xlink="http://www.w3.org/1999/xlink" x="0px" y="0px"
	 viewBox="0 0 400.4 112.2" style="enable-background:new 0 0 400.4 112.2;" xml:space="preserve">
<style type="text/css">
  .st0{fill:#1c84cf;}
	.st1{fill:#1c84cf;}
</style>
<path class="st0" d="M33,34.9l1.9-5.9v0.1c0.6-2.1,0.9-3.6,0.9-4.7c0-2.1-1-3.1-3-3.1c-1.7,0-3.1,0.6-4.1,1.9
	c-1.1,1.3-2,3.4-2.8,6.3c-0.3,0.9-0.5,1.7-0.6,2.4c-0.1,0.7-0.1,1.4-0.1,2.1c0,2.6,0.6,4.8,1.9,6.6c1.3,1.9,2.8,3.8,4.4,5.8
	c1.1,1.3,2.2,2.6,3.2,4.1c1.1,1.4,2.1,3,3,4.8s1.6,3.7,2.2,5.9c0.6,2.2,0.9,4.6,0.9,7.2c0,2-0.2,4.1-0.5,6.4
	c-0.3,2.3-0.9,4.8-1.7,7.5c-1.7,5.6-3.5,10.3-5.4,14c-1.9,3.7-4.2,6.8-6.7,9.1c-2.6,2.3-5.5,3.9-8.9,4.9c-3.4,0.9-7.4,1.4-11.9,1.4
	H3c-0.7,0-0.9-0.3-0.7-1L9,91.3c0.2-0.5,0.5-0.6,0.9-0.4c0.4,0.1,0.9,0.1,1.5,0.1c1.8,0,3.2-0.6,4.3-1.9c1.1-1.3,2.1-3.3,3-6.2
	c0.6-2.2,0.9-4.1,0.9-5.8c0-3-0.7-5.5-2.1-7.5c-1.4-2.1-2.9-4.1-4.6-6.2c-1.1-1.3-2.2-2.6-3.2-4.1c-1.1-1.4-2-3-2.9-4.7
	C5.9,52.9,5.2,51,4.7,49c-0.5-2-0.8-4.3-0.8-6.9c0-4,0.8-8.7,2.4-14c1.5-4.8,3.1-9,5-12.5c1.9-3.5,4.1-6.3,6.6-8.6
	c2.6-2.2,5.5-3.8,8.9-4.9c3.4-1,7.3-1.6,11.7-1.6c6.1,0,10.7,1.1,13.8,3.2C55.5,6,57,9.7,57,14.8c0,3.3-0.7,7.4-2.2,12.3l-2.5,8.3
	c-0.2,0.4-0.4,0.6-0.7,0.6H33.7C33,35.9,32.8,35.6,33,34.9z"/>
<path class="st1" d="M85.5,98.7c-2,3.3-4.2,5.9-6.8,7.8c-2.6,1.9-5.5,3.2-8.7,4c-3.2,0.7-6.9,1.1-10.9,1.1c-6.2,0-10.9-0.9-14.2-2.7
	c-3.3-1.8-4.9-5.3-4.9-10.4c0-1.7,0.2-3.5,0.6-5.6c0.4-2.1,1-4.4,1.8-6.9L67.1,3.3c0.2-0.4,0.4-0.6,0.7-0.6h18.3
	c0.7,0,0.9,0.3,0.7,0.9L62.9,83c-0.8,2.7-1.2,4.5-1.2,5.6c0,1,0.2,1.6,0.7,1.9c0.5,0.3,1.3,0.4,2.4,0.4c1.7,0,3-0.5,4-1.6
	c1-1,2-3.3,3.1-6.7L95.9,3.3c0.2-0.4,0.4-0.6,0.7-0.6h18.3c0.7,0,0.9,0.3,0.7,0.9L90.8,86.2C89.3,91.3,87.5,95.4,85.5,98.7z"/>
<path class="st1" d="M92.8,108.7L124.5,3.3c0.2-0.4,0.4-0.6,0.7-0.6h18.3c0.7,0,0.9,0.3,0.7,0.9L112.5,109c-0.2,0.4-0.4,0.6-0.7,0.6
	H93.5C92.8,109.6,92.6,109.3,92.8,108.7z"/>
<path class="st0" d="M152.5,73.2c0.1,0.1,0.1,0.3,0.1,0.7l-10.5,35c-0.2,0.4-0.4,0.6-0.7,0.6h-18.3c-0.7,0-0.9-0.3-0.7-0.9
	L154.2,3.3c0.2-0.4,0.4-0.6,0.7-0.6h22.6c6.8,0,11.7,0.9,14.8,2.6c3,1.7,4.6,4.9,4.6,9.5c0,3.5-0.8,7.8-2.4,12.8l-6.1,20.1
	c-1.5,4.8-3.1,8.8-4.8,12c-1.7,3.2-3.8,5.7-6.2,7.5c-2.4,1.9-5.3,3.2-8.6,4c-3.3,0.8-7.3,1.2-11.9,1.2h-0.9c-0.7,0-0.9-0.3-0.7-1
	l6.5-19.2c0.1-0.3,0.3-0.4,0.7-0.4h0.6c0.9,0,1.7-0.2,2.4-0.5c0.7-0.3,1.4-1,2.1-2c0.6-1,1.3-2.3,2-4.1c0.7-1.7,1.4-4,2.2-6.7
	c1.1-3.4,1.9-6.2,2.4-8.3c0.5-2.1,0.7-3.6,0.7-4.7c0-1-0.2-1.6-0.7-1.8c-0.5-0.2-1.2-0.3-2.2-0.3h-4.1l-8.3,27.5l-0.3,0.3l-6.5,21.3
	C152.6,72.8,152.5,73.1,152.5,73.2z"/>
<path class="st0" d="M206,73.2c0.1,0.1,0.1,0.3,0.1,0.7l-10.5,35c-0.2,0.4-0.4,0.6-0.7,0.6h-18.3c-0.7,0-0.9-0.3-0.7-0.9L207.6,3.3
	c0.2-0.4,0.4-0.6,0.7-0.6h22.6c6.8,0,11.7,0.9,14.8,2.6c3,1.7,4.6,4.9,4.6,9.5c0,3.5-0.8,7.8-2.4,12.8l-6.1,20.1
	c-1.5,4.8-3.1,8.8-4.8,12c-1.7,3.2-3.8,5.7-6.2,7.5c-2.4,1.9-5.3,3.2-8.6,4c-3.3,0.8-7.3,1.2-11.9,1.2h-0.9c-0.7,0-0.9-0.3-0.7-1
	l6.5-19.2c0.1-0.3,0.3-0.4,0.7-0.4h0.6c0.9,0,1.7-0.2,2.4-0.5c0.7-0.3,1.4-1,2.1-2c0.6-1,1.3-2.3,2-4.1c0.7-1.7,1.4-4,2.2-6.7
	c1.1-3.4,1.9-6.2,2.4-8.3c0.5-2.1,0.7-3.6,0.7-4.7c0-1-0.2-1.6-0.7-1.8c-0.5-0.2-1.2-0.3-2.2-0.3h-4.1l-8.3,27.5l-0.3,0.3l-6.5,21.3
	C206.1,72.8,206,73.1,206,73.2z"/>
<path class="st0" d="M261.8,2.7h37.6c0.7,0,0.9,0.3,0.7,0.9l-5.9,19.2c-0.2,0.4-0.4,0.6-0.7,0.6h-18.7l-5.9,20.1h17.4
	c0.7,0,0.9,0.3,0.7,0.9l-5.9,19.2c-0.2,0.4-0.4,0.6-0.7,0.6h-17.9l-7.4,24.8h18.3c0.7,0,0.9,0.3,0.7,0.9l-5.8,19.2
	c-0.2,0.4-0.4,0.6-0.7,0.6H230c-0.7,0-0.9-0.3-0.7-0.9L261,3.3C261.2,2.9,261.5,2.7,261.8,2.7z"/>
<path class="st0" d="M297.2,23.3c-0.7,0-0.9-0.3-0.7-0.9l5.9-19.2c0.2-0.4,0.4-0.6,0.7-0.6h45.5c0.7,0,0.9,0.3,0.7,0.9l-5.9,19.2
	c-0.2,0.4-0.4,0.6-0.7,0.6h-13L304,109c-0.2,0.4-0.4,0.6-0.7,0.6H285c-0.7,0-0.9-0.3-0.7-0.9l25.5-85.3H297.2z"/>
<path class="st0" d="M374.1,34.9L376,29v0.1c0.6-2.1,0.9-3.6,0.9-4.7c0-2.1-1-3.1-3-3.1c-1.7,0-3.1,0.6-4.1,1.9
	c-1.1,1.3-2,3.4-2.8,6.3c-0.3,0.9-0.5,1.7-0.6,2.4c-0.1,0.7-0.1,1.4-0.1,2.1c0,2.6,0.6,4.8,1.9,6.6c1.3,1.9,2.8,3.8,4.4,5.8
	c1.1,1.3,2.2,2.6,3.2,4.1c1.1,1.4,2.1,3,3,4.8s1.6,3.7,2.2,5.9c0.6,2.2,0.9,4.6,0.9,7.2c0,2-0.2,4.1-0.5,6.4
	c-0.3,2.3-0.9,4.8-1.7,7.5c-1.7,5.6-3.5,10.3-5.4,14c-1.9,3.7-4.2,6.8-6.7,9.1c-2.6,2.3-5.5,3.9-8.9,4.9c-3.4,0.9-7.4,1.4-11.9,1.4
	h-2.7c-0.7,0-0.9-0.3-0.7-1l6.8-19.3c0.2-0.5,0.5-0.6,0.9-0.4c0.4,0.1,0.9,0.1,1.5,0.1c1.8,0,3.2-0.6,4.3-1.9c1.1-1.3,2.1-3.3,3-6.2
	c0.6-2.2,0.9-4.1,0.9-5.8c0-3-0.7-5.5-2.1-7.5c-1.4-2.1-2.9-4.1-4.6-6.2c-1.1-1.3-2.2-2.6-3.2-4.1c-1.1-1.4-2-3-2.9-4.7
	c-0.8-1.7-1.5-3.6-2.1-5.6c-0.5-2-0.8-4.3-0.8-6.9c0-4,0.8-8.7,2.4-14c1.5-4.8,3.1-9,5-12.5c1.9-3.5,4.1-6.3,6.6-8.6
	c2.6-2.2,5.5-3.8,8.9-4.9c3.4-1,7.3-1.6,11.7-1.6c6.1,0,10.7,1.1,13.8,3.2c3.1,2.2,4.7,5.8,4.7,10.9c0,3.3-0.7,7.4-2.2,12.3
	l-2.5,8.3c-0.2,0.4-0.4,0.6-0.7,0.6h-17.9C374.2,35.9,373.9,35.6,374.1,34.9z"/>
</svg>
