<?xml version="1.0" encoding="utf-8"?>
<svg version="1.1" id="Layer_1" xmlns="http://www.w3.org/2000/svg" xmlns:xlink="http://www.w3.org/1999/xlink" x="0px" y="0px"
	 viewBox="0 0 293.5 211.9" style="enable-background:new 0 0 293.5 211.9;" xml:space="preserve">
<style type="text/css">
	.st0{fill:#27AAE1;}
</style>
<g>
	<g>
		<path class="st0" d="M0.9,0h141.4l0.9,0.9v141.4l-0.9,0.9H0.9L0,142.2V0.9L0.9,0z M28.4,28.4l0.4,25.4l-0.4,24.9h70.9l0.9,0.9
			v19.8l-0.9,0.9H28.8v14.2h85.5V64.5H43.4l-0.9-0.9V43.4l0.9-0.9h70.9V28.4H28.4z"/>
		<path class="st0" d="M151.3,0h141.4l0.9,0.9v141.4l-0.9,0.9H151.3l-0.9-0.9V0.9L151.3,0z M179.2,28.4v85.9h85.5V28.4h-13.8v70.9
			l-0.9,0.9h-56.3l-0.9-0.9V28.4H179.2z"/>
	</g>
	<g>
		<path class="st0" d="M27,199.2c0-1.6-0.5-2.9-1.6-3.7s-3-1.8-5.8-2.8c-5.6-1.8-9.8-3.8-12.5-5.8c-2.7-2.1-4.1-5-4.1-8.9
			c0-3.8,1.6-6.9,4.8-9.2s7.2-3.5,12.1-3.5c5.2,0,9.3,1.2,12.5,3.6c3.2,2.4,4.7,5.8,4.6,10.2l-0.1,0.2H26.7c0-2.1-0.6-3.7-1.7-4.7
			c-1.2-1-2.9-1.5-5.3-1.5c-1.9,0-3.4,0.5-4.5,1.4c-1.1,0.9-1.7,2.1-1.7,3.5c0,1.3,0.6,2.4,1.7,3.2s3.2,1.8,6.3,3
			c5.3,1.6,9.2,3.5,11.9,5.7c2.7,2.2,4.1,5.3,4.1,9.2c0,4-1.6,7.1-4.7,9.4c-3.1,2.3-7.3,3.4-12.4,3.4c-5.1,0-9.5-1.2-13-3.6
			c-3.6-2.4-5.3-6.2-5.2-11.4l0.1-0.2h10.3c0,2.6,0.6,4.5,1.9,5.6c1.3,1.1,3.3,1.7,6,1.7c2.2,0,3.8-0.4,4.9-1.3
			C26.5,201.8,27,200.6,27,199.2z"/>
		<path class="st0" d="M80.5,165.9v29.4c0,5.2-1.7,9.3-5.2,12.2c-3.5,2.9-8,4.4-13.5,4.4c-5.6,0-10.1-1.5-13.6-4.4
			c-3.5-2.9-5.2-7-5.2-12.2v-29.4h10.6v29.4c0,2.8,0.7,4.9,2.2,6.4c1.5,1.4,3.5,2.2,6,2.2c2.6,0,4.5-0.7,6-2.1
			c1.4-1.4,2.1-3.5,2.1-6.4v-29.4H80.5z"/>
		<path class="st0" d="M98.6,211.3H88.1v-45.4h10.5V211.3z"/>
		<path class="st0" d="M117.1,195.7v15.6h-10.5v-45.4h17.3c5.4,0,9.7,1.4,12.8,4.1c3.2,2.7,4.7,6.3,4.7,10.8s-1.6,8.1-4.7,10.8
			c-3.2,2.7-7.4,4.1-12.8,4.1H117.1z M117.1,187.6h6.8c2.3,0,4-0.6,5.2-1.9c1.2-1.3,1.8-2.9,1.8-4.8c0-2-0.6-3.7-1.8-5
			c-1.2-1.3-2.9-1.9-5.3-1.9h-6.8V187.6z"/>
		<path class="st0" d="M157.8,195.7v15.6h-10.5v-45.4h17.3c5.4,0,9.7,1.4,12.8,4.1c3.2,2.7,4.7,6.3,4.7,10.8s-1.6,8.1-4.7,10.8
			c-3.2,2.7-7.4,4.1-12.8,4.1H157.8z M157.8,187.6h6.8c2.3,0,4-0.6,5.2-1.9c1.2-1.3,1.8-2.9,1.8-4.8c0-2-0.6-3.7-1.8-5
			c-1.2-1.3-2.9-1.9-5.3-1.9h-6.8V187.6z"/>
		<path class="st0" d="M214.5,191.8h-16v11.3h19.2v8.1H188v-45.4h29.7v8.1h-19.2v9.8h16V191.8z"/>
		<path class="st0" d="M255.2,174h-12v37.3h-10.5V174h-11.8v-8.1h34.3V174z"/>
		<path class="st0" d="M282.4,199.2c0-1.6-0.5-2.9-1.6-3.7s-3-1.8-5.8-2.8c-5.6-1.8-9.8-3.8-12.5-5.8c-2.7-2.1-4.1-5-4.1-8.9
			c0-3.8,1.6-6.9,4.8-9.2s7.2-3.5,12.1-3.5c5.2,0,9.3,1.2,12.5,3.6c3.2,2.4,4.7,5.8,4.6,10.2l-0.1,0.2h-10.2c0-2.1-0.6-3.7-1.7-4.7
			c-1.2-1-2.9-1.5-5.3-1.5c-1.9,0-3.4,0.5-4.5,1.4c-1.1,0.9-1.7,2.1-1.7,3.5c0,1.3,0.6,2.4,1.7,3.2s3.2,1.8,6.3,3
			c5.3,1.6,9.2,3.5,11.9,5.7c2.7,2.2,4.1,5.3,4.1,9.2c0,4-1.6,7.1-4.7,9.4c-3.1,2.3-7.3,3.4-12.4,3.4c-5.1,0-9.5-1.2-13-3.6
			c-3.6-2.4-5.3-6.2-5.2-11.4l0.1-0.2h10.3c0,2.6,0.6,4.5,1.9,5.6c1.3,1.1,3.3,1.7,6,1.7c2.2,0,3.8-0.4,4.9-1.3
			C281.8,201.8,282.4,200.6,282.4,199.2z"/>
	</g>
</g>
</svg>
